HIERARCHY
ROOT Hips
{
	OFFSET 0.000000 0.000000 0.000000 
	CHANNELS 6 Xposition Yposition Zposition Zrotation Yrotation Xrotation
	JOINT LeftUpLeg
	{
		OFFSET 1.363060 -1.794630 0.839290 
		CHANNELS 3 Zrotation Yrotation Xrotation
		JOINT LeftLeg
		{
			OFFSET 2.448110 -6.726130 0.000000 
			CHANNELS 3 Zrotation Yrotation Xrotation
			JOINT LeftFoot
			{
				OFFSET 2.562200 -7.039590 0.000000 
				CHANNELS 3 Zrotation Yrotation Xrotation
				JOINT LeftToeBase
				{
					OFFSET 0.157640 -0.433110 2.322550 
					CHANNELS 3 Zrotation Yrotation Xrotation
					End Site
					{
						OFFSET 0.000000 0.000000 0.000000 
					}
				}
			}
		}
	}
	JOINT RightUpLeg
	{
		OFFSET -1.305520 -1.794630 0.839290 
		CHANNELS 3 Zrotation Yrotation Xrotation
		JOINT RightLeg
		{
			OFFSET -2.542530 -6.985550 0.000000 
			CHANNELS 3 Zrotation Yrotation Xrotation
			JOINT RightFoot
			{
				OFFSET -2.568260 -7.056230 0.000000 
				CHANNELS 3 Zrotation Yrotation Xrotation
				JOINT RightToeBase
				{
					OFFSET -0.164730 -0.452590 2.363150 
					CHANNELS 3 Zrotation Yrotation Xrotation
					End Site
					{
						OFFSET 0.000000 0.000000 0.000000 
					}
				}
			}
		}
	}
	JOINT Spine
	{
		OFFSET 0.028270 2.035590 -0.193380 
		CHANNELS 3 Zrotation Yrotation Xrotation
		JOINT Spine1
		{
			OFFSET 0.056720 2.048850 -0.042750 
			CHANNELS 3 Zrotation Yrotation Xrotation
			JOINT Neck1
			{
				OFFSET -0.054170 1.746240 0.172020 
				CHANNELS 3 Zrotation Yrotation Xrotation
				JOINT Head
				{
					OFFSET 0.104070 1.761360 -0.123970 
					CHANNELS 3 Zrotation Yrotation Xrotation
					End Site
					{
						OFFSET 0.000000 0.000000 0.000000 
					}
				}
			}
			JOINT LeftArm
			{
				OFFSET 3.362410 1.200890 -0.311210 
				CHANNELS 3 Zrotation Yrotation Xrotation
				JOINT LeftForeArm
				{
					OFFSET 4.983000 -0.000000 -0.000000 
					CHANNELS 3 Zrotation Yrotation Xrotation
					JOINT LeftHand
					{
						OFFSET 3.483560 -0.000000 -0.000000 
						CHANNELS 3 Zrotation Yrotation Xrotation
						JOINT LeftHandIndex1
						{
							OFFSET 0.715260 -0.000000 -0.000000 
							CHANNELS 3 Zrotation Yrotation Xrotation
							End Site
							{
								OFFSET 0.000000 0.000000 0.000000 
							}
						}
					}
				}
			}
			JOINT RightArm
			{
				OFFSET -3.136600 1.374050 -0.404650 
				CHANNELS 3 Zrotation Yrotation Xrotation
				JOINT RightForeArm
				{
					OFFSET -5.241900 -0.000000 -0.000000 
					CHANNELS 3 Zrotation Yrotation Xrotation
					JOINT RightHand
					{
						OFFSET -3.444170 -0.000000 -0.000000 
						CHANNELS 3 Zrotation Yrotation Xrotation
						JOINT RightHandIndex1
						{
							OFFSET -0.622530 -0.000000 -0.000000 
							CHANNELS 3 Zrotation Yrotation Xrotation
							End Site
							{
								OFFSET 0.000000 0.000000 0.000000 
							}
						}
					}
				}
			}
		}
	}
}
MOTION
Frames: 18
Frame Time: 0.041667
-0.766109 17.903979 1.360971 5.646286 1.611100 10.092712 -8.801461 -9.920955 -9.648625 -0.820587 4.127482 13.815096 -1.954265 10.029268 5.540019 2.739800 -10.261400 -29.827300 12.492222 4.878360 -23.106091 -2.487168 -10.778817 32.567592 -0.434664 -1.185166 -11.914841 -0.104400 -2.083300 5.735900 5.081453 3.794197 0.946554 3.540780 2.349698 -3.013629 9.000381 -9.319806 -1.780891 3.598800 -4.152100 7.913100 -65.121560 11.332897 18.875463 29.316168 -43.011438 -13.705414 0.096430 -1.259779 8.579156 -7.125000 0.000000 0.000000 23.218792 15.730719 7.750352 -23.487898 32.860233 -9.063404 1.285836 -1.675035 41.163782 7.125000 0.000000 0.000000 
-0.747004 17.901579 1.356470 5.474353 1.968414 10.049888 -8.634436 -9.886961 -9.563872 -0.851321 4.029338 13.543502 -1.892248 9.779916 5.700915 2.694600 -10.183500 -29.573000 12.671136 4.653196 -23.073968 -2.487570 -10.778116 32.575407 -0.430291 -1.256796 -12.041026 -0.100900 -2.048300 5.639100 5.138442 3.694644 0.948526 3.549959 2.303376 -3.006917 8.806164 -9.072832 -1.901061 3.560500 -4.052600 7.817700 -65.178151 11.511722 18.900570 29.475437 -43.141084 -13.821036 0.098442 -1.260307 8.409768 -7.125000 0.000000 0.000000 22.574427 15.649204 6.695099 -23.692953 33.062243 -9.193113 1.348224 -1.625488 40.020625 7.125000 0.000000 0.000000 
-0.725698 17.900978 1.355069 5.342057 2.408633 9.947449 -8.513912 -9.914557 -9.471887 -0.870160 3.971002 13.381605 -1.842438 9.573946 5.788162 2.584400 -9.989700 -28.943400 12.815384 4.376414 -22.932262 -2.476487 -10.756952 32.524888 -0.418091 -1.388557 -12.217582 -0.090900 -1.944400 5.352100 5.154129 3.563678 0.986052 3.483955 2.237256 -2.951619 8.832333 -8.860561 -1.905487 3.595200 -3.948700 7.799100 -65.139902 11.396004 18.910173 29.362938 -43.053668 -13.743436 0.097265 -1.259273 8.297644 -7.125000 0.000000 0.000000 21.817319 15.548271 5.560732 -23.960679 33.329820 -9.364657 1.403042 -1.573739 38.594033 7.125000 0.000000 0.000000 
-0.704192 17.905380 1.355869 5.308307 2.591815 10.019144 -8.488170 -10.138036 -9.493226 -0.889337 3.928591 13.248179 -1.904007 9.807446 5.534959 2.252400 -9.373200 -26.969800 12.793410 4.277144 -22.946774 -2.457554 -10.733362 32.439846 -0.402085 -1.492100 -12.269807 -0.087900 -1.911800 5.262100 5.122697 3.535037 0.983181 3.436969 2.222762 -2.859746 8.938958 -8.666952 -1.727561 3.659400 -3.843400 7.865600 -65.055710 11.224726 19.011398 29.194528 -42.921216 -13.621973 0.090065 -1.257775 8.314285 -7.125000 0.000000 0.000000 20.955244 15.542513 4.197840 -24.152680 33.525563 -9.495460 1.441971 -1.532991 37.311251 7.125000 0.000000 0.000000 
-0.684887 17.911281 1.355769 5.321705 2.591022 10.172977 -8.545724 -10.296561 -9.523817 -0.912581 3.872677 13.090997 -1.966814 10.028162 5.177605 2.038800 -8.946400 -25.627800 12.673080 4.342029 -23.051956 -2.443372 -10.723210 32.379792 -0.393051 -1.531449 -12.247722 -0.081900 -1.845900 5.080100 5.078644 3.580086 0.977263 3.454177 2.247505 -2.729202 8.980749 -8.447199 -1.758069 3.703800 -3.736900 7.832400 -65.007378 11.200984 19.113973 29.169364 -42.904137 -13.603026 0.087178 -1.258478 8.257041 -7.125000 0.000000 0.000000 20.034256 15.636172 2.628514 -24.264588 33.642737 -9.581015 1.487644 -1.495256 36.452231 7.125000 0.000000 0.000000 
-0.664581 17.908080 1.351368 5.313325 2.807848 10.262739 -8.619374 -10.296663 -9.546490 -0.930781 3.821950 12.966530 -1.929681 9.849924 5.086643 2.154000 -9.179600 -26.358900 12.619605 4.256961 -23.134030 -2.436327 -10.721425 32.354177 -0.377403 -1.622275 -12.271372 -0.081300 -1.839400 5.062000 5.041860 3.560656 0.924106 3.448051 2.242260 -2.721608 8.957509 -8.263184 -1.775756 3.709900 -3.652900 7.787900 -64.972348 11.334819 19.197872 29.300597 -43.014241 -13.701381 0.094043 -1.261242 8.291813 -7.125000 0.000000 0.000000 19.015596 15.660919 1.260344 -24.383576 33.774231 -9.674556 1.558986 -1.448301 35.376888 7.125000 0.000000 0.000000 
-0.643675 17.898778 1.342866 5.193289 3.064593 10.306067 -8.566482 -10.159370 -9.657858 -0.945819 3.773205 12.836641 -1.859059 9.554431 5.191231 2.319900 -9.502900 -27.381500 12.710722 4.108926 -23.212886 -2.433694 -10.720193 32.347005 -0.375575 -1.655015 -12.329473 -0.087100 -1.903600 5.239300 5.026668 3.548206 0.832894 3.403345 2.244108 -2.842170 8.753555 -8.072783 -1.675032 3.634700 -3.571700 7.778700 -64.905724 11.523884 19.298595 29.413226 -43.113094 -13.791319 0.098652 -1.262277 8.369208 -7.125000 0.000000 0.000000 17.927758 15.732324 -0.080351 -24.499685 33.910706 -9.770019 1.621184 -1.408181 34.060019 7.125000 0.000000 0.000000 
-0.623970 17.891976 1.339065 4.929014 3.390137 10.170610 -8.328410 -10.114869 -9.573441 -0.959286 3.723049 12.698901 -1.796834 9.274965 5.186636 2.280700 -9.427800 -27.142800 12.972758 3.918356 -23.075269 -2.432570 -10.708291 32.339358 -0.400355 -1.599444 -12.511942 -0.112800 -2.165200 5.962300 5.052447 3.514362 0.864975 3.310331 2.231782 -2.814558 8.556208 -7.885821 -1.749523 3.562200 -3.494100 7.712100 -64.837602 11.495762 19.387540 29.461442 -43.150717 -13.820179 0.102153 -1.267887 8.294565 -7.125000 0.000000 0.000000 16.747180 15.841762 -1.710777 -24.616053 34.050848 -9.867329 1.649892 -1.379440 32.987344 7.125000 0.000000 0.000000 
-0.603164 17.888675 1.343166 4.785459 4.032426 9.853332 -8.193584 -10.351978 -9.192601 -0.972654 3.678343 12.596577 -1.725252 8.934012 5.063099 2.207500 -9.285600 -26.692900 13.162572 3.454240 -22.703246 -2.426882 -10.684753 32.302202 -0.407946 -1.665551 -12.771155 -0.113600 -2.172800 5.983500 5.048989 3.334237 0.966780 3.188898 2.141454 -2.693500 8.608666 -7.736146 -1.892045 3.584600 -3.420000 7.642100 -64.804050 11.285346 19.364687 29.479459 -43.157820 -13.829427 0.110655 -1.271837 8.375989 -7.125000 0.000000 0.000000 15.527065 15.868976 -3.486114 -24.749993 34.208114 -9.977405 1.657492 -1.355799 32.185979 7.125000 0.000000 0.000000 
-0.582759 17.889275 1.347667 4.697587 4.576839 9.661254 -8.105643 -10.695918 -8.980224 -0.982235 3.660529 12.553760 -1.695633 8.767347 4.825716 2.134000 -9.139700 -26.233400 13.274363 3.071627 -22.424379 -2.403255 -10.639772 32.184005 -0.377689 -1.878538 -12.922237 -0.090800 -1.943200 5.348700 5.027784 3.208591 0.998200 3.096072 2.078946 -2.622112 8.801572 -7.624271 -1.885806 3.663700 -3.354500 7.640100 -64.743332 11.133432 19.372381 29.378100 -43.081294 -13.771180 0.108604 -1.264612 8.612399 -7.125000 0.000000 0.000000 14.178034 15.864123 -5.160773 -24.850241 34.329845 -10.062922 1.712821 -1.298491 31.068054 7.125000 0.000000 0.000000 
-0.562753 17.887575 1.347267 4.490882 4.917808 9.582283 -7.901680 -10.974960 -8.923169 -0.991028 3.644291 12.492456 -1.709425 8.796925 4.590582 1.996100 -8.858000 -25.352100 13.463534 2.930702 -22.246838 -2.371725 -10.584575 32.036028 -0.343397 -2.101465 -13.056847 -0.082600 -1.853800 5.101800 4.975944 3.215276 0.925062 2.912394 2.084762 -2.705215 8.908757 -7.608422 -1.740655 3.678200 -3.336500 7.675900 -64.543230 11.216903 19.543635 29.304637 -43.035940 -13.734143 0.098806 -1.258687 8.661056 -7.125000 0.000000 0.000000 12.869929 15.823242 -6.794984 -24.960528 34.443561 -10.148555 1.826154 -1.191141 29.871433 7.125000 0.000000 0.000000 
-0.544148 17.889275 1.346467 4.196509 5.337875 9.461622 -7.573825 -11.351946 -8.686853 -1.000670 3.619518 12.416362 -1.716572 8.770659 4.176918 1.738800 -8.299500 -23.627400 13.768209 2.835435 -22.039757 -2.351918 -10.545745 31.951315 -0.306391 -2.379743 -13.300139 -0.069100 -1.696000 4.666200 4.951532 3.194833 0.845346 2.727610 2.078343 -2.827183 8.881128 -7.590657 -1.528049 3.632100 -3.322400 7.730300 -64.403547 11.376820 19.700874 29.442182 -43.150702 -13.829369 0.106356 -1.268679 8.353582 -7.125000 0.000000 0.000000 11.559049 15.862066 -8.527613 -25.016053 34.517576 -10.206281 1.915311 -1.108109 28.829096 7.125000 0.000000 0.000000 
-0.523443 17.891476 1.346467 4.021482 5.778396 9.353001 -7.388319 -11.733801 -8.412503 -1.015489 3.580586 12.317276 -1.706572 8.669873 3.727092 1.559900 -7.882000 -22.356200 13.935128 2.659188 -21.902823 -2.348891 -10.536915 31.943132 -0.288998 -2.554723 -13.522618 -0.064700 -1.641400 4.515700 4.879240 3.124101 0.813091 2.517906 2.043582 -2.809057 9.064021 -7.552993 -1.577898 3.680300 -3.293100 7.693700 -64.246231 11.390411 19.803793 29.544049 -43.232122 -13.899226 0.119814 -1.279923 7.942038 -7.125000 0.000000 0.000000 10.212053 15.939644 -10.239274 -25.104149 34.635845 -10.290016 1.975631 -1.050821 27.739821 7.125000 0.000000 0.000000 
-0.500736 17.875972 1.342366 3.923503 6.170634 9.268362 -7.449812 -11.457230 -8.482850 -1.025009 3.540312 12.212882 -1.647572 8.443077 3.982684 1.899100 -8.652600 -24.714600 14.002853 2.355039 -21.891674 -2.359780 -10.549758 31.990300 -0.289628 -2.576841 -13.579672 -0.060000 -1.580000 4.346200 4.776582 3.068839 0.775518 2.298585 2.017858 -2.799052 9.153398 -7.514096 -1.741978 3.706200 -3.276200 7.602900 -64.095578 11.365991 19.839694 29.529230 -43.223904 -13.897014 0.120475 -1.279655 7.864054 -7.125000 0.000000 0.000000 8.880714 15.964214 -11.948474 -25.276959 34.830472 -10.427198 2.018009 -0.997147 26.676799 7.125000 0.000000 0.000000 
-0.478730 17.860167 1.340465 3.866170 6.516271 9.208257 -7.560026 -11.148429 -8.591294 -1.034314 3.500826 12.111942 -1.587109 8.214820 4.282854 2.177500 -9.226400 -26.506300 14.020267 2.081817 -21.888320 -2.378674 -10.574462 32.072923 -0.307090 -2.523919 -13.654865 -0.058000 -1.553500 4.273100 4.691397 3.042587 0.716885 2.164727 2.008021 -2.835981 9.218807 -7.472553 -1.843552 3.720300 -3.257700 7.537800 -64.048810 11.372667 19.798934 29.588431 -43.270357 -13.937613 0.128539 -1.286681 7.788464 -7.125000 0.000000 0.000000 7.474967 16.000104 -13.734809 -25.358702 34.944846 -10.506076 2.050504 -0.950355 25.647470 7.125000 0.000000 0.000000 
-0.457525 17.856766 1.340565 3.838182 6.899397 9.140867 -7.620097 -11.239547 -8.505294 -1.046601 3.463708 12.022754 -1.559085 8.086085 4.252761 2.120100 -9.111800 -26.145700 14.000377 1.884576 -21.832718 -2.398619 -10.602195 32.164176 -0.332891 -2.476636 -13.842131 -0.066100 -1.659200 4.564700 4.592146 2.993691 0.676309 2.028997 1.987833 -2.837924 9.338101 -7.429504 -1.902277 3.740900 -3.229100 7.501200 -63.955990 11.415056 19.839998 29.730266 -43.381782 -14.040844 0.131863 -1.289874 7.875457 -7.125000 0.000000 0.000000 5.955757 16.197050 -15.618515 -25.249177 34.897451 -10.462360 2.106613 -0.896410 24.601647 7.125000 0.000000 0.000000 
-0.437419 17.853265 1.343066 3.656160 7.231953 9.054379 -7.525007 -11.296479 -8.423185 -1.048800 3.455974 12.005554 -1.541134 7.986648 4.094762 2.137400 -9.146700 -26.255200 14.157936 1.813242 -21.702513 -2.402237 -10.602389 32.189093 -0.309703 -2.674209 -14.045352 -0.057300 -1.545200 4.250500 4.556229 2.976625 0.620603 1.911741 1.984913 -2.830105 9.476270 -7.419135 -1.917515 3.774400 -3.219400 7.468900 -63.938255 11.702951 19.881860 29.951715 -43.563747 -14.225011 0.108038 -1.269209 8.409071 -7.125000 0.000000 0.000000 4.350337 16.462318 -17.462773 -25.029223 34.760481 -10.346363 2.196905 -0.823027 23.655644 7.125000 0.000000 0.000000 
-0.417814 17.846163 1.345967 3.455663 7.569913 8.907773 -7.416101 -11.300189 -8.408190 -1.042225 3.480609 12.072791 -1.521869 7.873837 3.844776 2.190300 -9.251700 -26.585700 14.345297 1.698507 -21.501520 -2.396469 -10.582725 32.162844 -0.287175 -2.869541 -14.254007 -0.051100 -1.459200 4.013200 4.541278 2.972838 0.528407 1.817309 1.987935 -2.910112 9.653689 -7.379098 -2.086678 3.842900 -3.205800 7.352800 -63.953482 12.145379 20.021081 30.335480 -43.866023 -14.512955 0.094346 -1.259658 8.293223 -7.125000 0.000000 0.000000 2.755816 16.611698 -19.179484 -24.902570 34.706865 -10.287547 2.276288 -0.746091 22.632270 7.125000 0.000000 0.000000 
